<?xml version="1.0" encoding="UTF-8" standalone="no"?>
<!-- Created with Inkscape (http://www.inkscape.org/) -->

<svg
   xmlns:dc="http://purl.org/dc/elements/1.1/"
   xmlns:cc="http://creativecommons.org/ns#"
   xmlns:rdf="http://www.w3.org/1999/02/22-rdf-syntax-ns#"
   xmlns:svg="http://www.w3.org/2000/svg"
   xmlns="http://www.w3.org/2000/svg"
   xmlns:xlink="http://www.w3.org/1999/xlink"
   xmlns:sodipodi="http://sodipodi.sourceforge.net/DTD/sodipodi-0.dtd"
   xmlns:inkscape="http://www.inkscape.org/namespaces/inkscape"
   width="744.09448819"
   height="1052.3622047"
   id="svg2"
   version="1.1"
   inkscape:version="0.48.4 r9939"
   sodipodi:docname="logosvg_color.svg">
  <defs
     id="defs4">
    <linearGradient
       id="linearGradient4229"
       inkscape:collect="always">
      <stop
         id="stop4231"
         offset="0"
         style="stop-color:#217821;stop-opacity:1" />
      <stop
         id="stop4233"
         offset="1"
         style="stop-color:#165016;stop-opacity:1" />
    </linearGradient>
    <linearGradient
       inkscape:collect="always"
       id="linearGradient4197">
      <stop
         style="stop-color:#cccccc;stop-opacity:1"
         offset="0"
         id="stop4199" />
      <stop
         style="stop-color:#000080;stop-opacity:1"
         offset="1"
         id="stop4201" />
    </linearGradient>
    <linearGradient
       inkscape:collect="always"
       id="linearGradient4163">
      <stop
         style="stop-color:#ffffff;stop-opacity:1;"
         offset="0"
         id="stop4165" />
      <stop
         style="stop-color:#ffffff;stop-opacity:0;"
         offset="1"
         id="stop4167" />
    </linearGradient>
    <linearGradient
       inkscape:collect="always"
       id="linearGradient4122">
      <stop
         style="stop-color:#ffffff;stop-opacity:1;"
         offset="0"
         id="stop4124" />
      <stop
         style="stop-color:#ffffff;stop-opacity:0;"
         offset="1"
         id="stop4126" />
    </linearGradient>
    <linearGradient
       inkscape:collect="always"
       id="linearGradient4106">
      <stop
         style="stop-color:#ffffff;stop-opacity:1;"
         offset="0"
         id="stop4108" />
      <stop
         style="stop-color:#ffffff;stop-opacity:0;"
         offset="1"
         id="stop4110" />
    </linearGradient>
    <linearGradient
       inkscape:collect="always"
       id="linearGradient4062">
      <stop
         style="stop-color:#ffffff;stop-opacity:1;"
         offset="0"
         id="stop4064" />
      <stop
         style="stop-color:#ffffff;stop-opacity:0;"
         offset="1"
         id="stop4066" />
    </linearGradient>
    <linearGradient
       inkscape:collect="always"
       id="linearGradient4049">
      <stop
         style="stop-color:#ffffff;stop-opacity:1;"
         offset="0"
         id="stop4051" />
      <stop
         style="stop-color:#ffffff;stop-opacity:0;"
         offset="1"
         id="stop4053" />
    </linearGradient>
    <linearGradient
       id="linearGradient3194"
       inkscape:collect="always">
      <stop
         id="stop3196"
         offset="0"
         style="stop-color:#ffff00;stop-opacity:1" />
      <stop
         id="stop3198"
         offset="1"
         style="stop-color:#ff6600;stop-opacity:1" />
    </linearGradient>
    <linearGradient
       id="linearGradient3186"
       inkscape:collect="always">
      <stop
         id="stop3188"
         offset="0"
         style="stop-color:#0000ff;stop-opacity:1" />
      <stop
         id="stop3190"
         offset="1"
         style="stop-color:#000080;stop-opacity:1" />
    </linearGradient>
    <linearGradient
       inkscape:collect="always"
       id="linearGradient3085">
      <stop
         style="stop-color:#ffffff;stop-opacity:1;"
         offset="0"
         id="stop3087" />
      <stop
         style="stop-color:#ffffff;stop-opacity:0;"
         offset="1"
         id="stop3089" />
    </linearGradient>
    <linearGradient
       inkscape:collect="always"
       id="linearGradient3034">
      <stop
         style="stop-color:#ffffff;stop-opacity:1;"
         offset="0"
         id="stop3036" />
      <stop
         style="stop-color:#ffffff;stop-opacity:0;"
         offset="1"
         id="stop3038" />
    </linearGradient>
    <linearGradient
       inkscape:collect="always"
       id="linearGradient3800">
      <stop
         style="stop-color:#ff0000;stop-opacity:1;"
         offset="0"
         id="stop3802" />
      <stop
         style="stop-color:#ff0000;stop-opacity:0;"
         offset="1"
         id="stop3804" />
    </linearGradient>
    <radialGradient
       inkscape:collect="always"
       xlink:href="#linearGradient3800"
       id="radialGradient3806"
       cx="353.66135"
       cy="474.71533"
       fx="353.66135"
       fy="474.71533"
       r="52.27953"
       gradientUnits="userSpaceOnUse"
       gradientTransform="matrix(-1.6594894e-7,1.9645679,-1.3371513,-1.1295045e-7,988.42763,-220.07636)" />
    <radialGradient
       inkscape:collect="always"
       xlink:href="#linearGradient3085"
       id="radialGradient3095"
       gradientUnits="userSpaceOnUse"
       gradientTransform="matrix(-0.78426236,0.78426236,-0.69541971,-0.69541894,1010.1898,608.02151)"
       cx="359.75372"
       cy="527.84021"
       fx="359.75372"
       fy="527.84021"
       r="29.078125" />
    <radialGradient
       inkscape:collect="always"
       xlink:href="#linearGradient3034"
       id="radialGradient3123"
       gradientUnits="userSpaceOnUse"
       gradientTransform="matrix(0.54107304,0.93716566,-0.9102081,0.52550887,609.87587,-105.49328)"
       cx="360"
       cy="488.52802"
       fx="360"
       fy="488.52802"
       r="50.088749" />
    <radialGradient
       inkscape:collect="always"
       xlink:href="#linearGradient3186"
       id="radialGradient3184"
       cx="418"
       cy="574.21802"
       fx="418"
       fy="574.21802"
       r="50.088749"
       gradientTransform="matrix(-0.66382169,-1.2378035,0.87931741,-0.47156328,190.55757,1362.2942)"
       gradientUnits="userSpaceOnUse" />
    <radialGradient
       inkscape:collect="always"
       xlink:href="#linearGradient3194"
       id="radialGradient3192"
       cx="325"
       cy="575.82428"
       fx="325"
       fy="575.82428"
       r="29.078125"
       gradientTransform="matrix(1.4099945,-1.5905431,0.73593191,0.65239581,-557.01569,716.62334)"
       gradientUnits="userSpaceOnUse" />
    <linearGradient
       inkscape:collect="always"
       xlink:href="#linearGradient4049"
       id="linearGradient4055"
       x1="371.5"
       y1="443.17963"
       x2="371.5"
       y2="541.86945"
       gradientUnits="userSpaceOnUse" />
    <linearGradient
       inkscape:collect="always"
       xlink:href="#linearGradient4062"
       id="linearGradient4068"
       x1="401.25"
       y1="539.86218"
       x2="401.25"
       y2="557.7868"
       gradientUnits="userSpaceOnUse" />
    <filter
       inkscape:collect="always"
       id="filter4102"
       x="-0.032527188"
       width="1.0650544"
       y="-0.38612705"
       height="1.7722541">
      <feGaussianBlur
         inkscape:collect="always"
         stdDeviation="1.4337024"
         id="feGaussianBlur4104" />
    </filter>
    <linearGradient
       inkscape:collect="always"
       xlink:href="#linearGradient4106"
       id="linearGradient4112"
       x1="376.88791"
       y1="476.04749"
       x2="376.88791"
       y2="487.08322"
       gradientUnits="userSpaceOnUse" />
    <radialGradient
       inkscape:collect="always"
       xlink:href="#linearGradient4122"
       id="radialGradient4128"
       cx="357.79602"
       cy="520.26434"
       fx="357.79602"
       fy="520.26434"
       r="31.371762"
       gradientUnits="userSpaceOnUse"
       gradientTransform="matrix(0.42825254,0.85650405,-0.8944281,0.44721176,669.90802,-18.85773)" />
    <filter
       inkscape:collect="always"
       id="filter4150">
      <feGaussianBlur
         inkscape:collect="always"
         stdDeviation="1.8823057"
         id="feGaussianBlur4152" />
    </filter>
    <radialGradient
       inkscape:collect="always"
       xlink:href="#linearGradient4122"
       id="radialGradient4156"
       gradientUnits="userSpaceOnUse"
       gradientTransform="matrix(0.42825254,0.85650405,-0.8944281,0.44721176,669.90802,-18.85773)"
       cx="357.79602"
       cy="520.26434"
       fx="357.79602"
       fy="520.26434"
       r="31.371762" />
    <radialGradient
       inkscape:collect="always"
       xlink:href="#linearGradient4163"
       id="radialGradient4169"
       cx="377.24146"
       cy="536.17426"
       fx="377.24146"
       fy="536.17426"
       r="21.515625"
       gradientUnits="userSpaceOnUse"
       gradientTransform="matrix(-4.8614372e-7,1.9722347,-1.9870315,-4.8979104e-7,1443.6975,-207.12703)" />
    <filter
       inkscape:collect="always"
       id="filter4193">
      <feGaussianBlur
         inkscape:collect="always"
         stdDeviation="0.860625"
         id="feGaussianBlur4195" />
    </filter>
    <radialGradient
       inkscape:collect="always"
       xlink:href="#linearGradient4197"
       id="radialGradient4203"
       cx="336.93637"
       cy="472.88818"
       fx="336.93637"
       fy="472.88818"
       r="56"
       gradientUnits="userSpaceOnUse"
       gradientTransform="matrix(3.635147e-5,1.9071749,-4.3018365,0,2371.2118,-169.7084)" />
    <radialGradient
       inkscape:collect="always"
       xlink:href="#linearGradient4229"
       id="radialGradient4227"
       gradientUnits="userSpaceOnUse"
       gradientTransform="matrix(3.635147e-5,1.9071749,-4.3018365,0,2371.2118,-169.7084)"
       cx="336.93637"
       cy="472.88818"
       fx="373.82712"
       fy="464.09451"
       r="56" />
  </defs>
  <sodipodi:namedview
     id="base"
     pagecolor="#ffffff"
     bordercolor="#666666"
     borderopacity="1.0"
     inkscape:pageopacity="0.0"
     inkscape:pageshadow="2"
     inkscape:zoom="2.8284271"
     inkscape:cx="372.04724"
     inkscape:cy="526.18109"
     inkscape:document-units="px"
     inkscape:current-layer="layer1"
     showgrid="false"
     inkscape:window-width="1022"
     inkscape:window-height="751"
     inkscape:window-x="0"
     inkscape:window-y="15"
     inkscape:window-maximized="0"
     showguides="true"
     inkscape:guide-bbox="true">
    <inkscape:grid
       type="xygrid"
       id="grid2985" />
  </sodipodi:namedview>
  <metadata
     id="metadata7">
    <rdf:RDF>
      <cc:Work
         rdf:about="">
        <dc:format>image/svg+xml</dc:format>
        <dc:type
           rdf:resource="http://purl.org/dc/dcmitype/StillImage" />
        <dc:title></dc:title>
      </cc:Work>
    </rdf:RDF>
  </metadata>
  <g
     inkscape:label="Layer 1"
     inkscape:groupmode="layer"
     id="layer1">
    <rect
       style="fill:#000000;fill-opacity:1;stroke:none"
       id="rect4114"
       width="584.09735"
       height="442.76566"
       x="86.430206"
       y="306.12933"
       rx="15.843022"
       ry="13.915045" />
    <g
       id="g4205">
      <rect
         ry="6.0104074"
         rx="6.0104074"
         y="471.18109"
         x="317.04724"
         height="110"
         width="110"
         id="rect3856"
         style="fill:url(#radialGradient4227);fill-opacity:1;stroke:#ffffff;stroke-width:1;stroke-linecap:round;stroke-linejoin:round;stroke-miterlimit:4;stroke-opacity:1;stroke-dasharray:none" />
      <g
         id="g3172">
        <path
           inkscape:connector-curvature="0"
           id="path3998"
           d="m 392.07069,476.50924 c -8.98598,0 -16.28125,7.46627 -16.28125,16.65625 0,0.021 -8e-5,0.0416 0,0.0625 -2.37613,-4.00839 -6.64362,-6.71875 -11.5625,-6.71875 -7.48831,0 -13.5625,6.2167 -13.5625,13.875 0,0.15824 -0.005,0.31178 0,0.46875 -1.99111,-2.63491 -5.09119,-4.34375 -8.59375,-4.34375 -5.99065,0 -10.84375,4.9671 -10.84375,11.09375 0,4.59499 2.73184,8.56594 6.625,10.25 -8.00315,1.94559 -14.26018,9.29512 -15.78125,18.625 l -0.0469,39.375 c 49.81321,-0.0176 77.08909,0.61161 90.49678,0.61161 12.26308,0 9.26809,-8.88269 9.5501,-39.95541 -2.25422,-14.04358 -11.61483,-25.08567 -23.65625,-28 5.83975,-2.52608 9.90625,-8.45126 9.90625,-15.34375 0,-9.18998 -7.26402,-16.65625 -16.25,-16.65625 z m -14.3125,24.5625 c 1.75278,3.31176 4.55664,5.96154 7.96875,7.4375 -4.3872,1.06654 -8.40897,3.23764 -11.875,6.21875 -1.393,-0.65591 -2.83767,-1.19799 -4.34375,-1.5625 4.6698,-2.02 7.98896,-6.648 8.25,-12.09375 z m -24.84375,7 c 1.46207,2.24868 3.57173,4.02984 6.03125,5.09375 -3.79409,0.92235 -7.28982,2.83377 -10.25,5.46875 -0.77687,-0.30629 -1.55777,-0.58346 -2.375,-0.78125 3.75783,-1.62551 6.41226,-5.3898 6.59375,-9.78125 z"
           style="fill:#000000;fill-opacity:1;stroke:#ffffff;stroke-width:2;stroke-linecap:round;stroke-linejoin:round;stroke-miterlimit:4;stroke-dasharray:none"
           sodipodi:nodetypes="cscsscsscccsccscccccccccccc" />
        <g
           id="g3168">
          <path
             inkscape:connector-curvature="0"
             id="path3794"
             d="m 392.07069,476.50924 c -8.98598,0 -16.28125,7.46627 -16.28125,16.65625 0,0.021 -8e-5,0.0416 0,0.0625 -2.37613,-4.00839 -6.64362,-6.71875 -11.5625,-6.71875 -7.48831,0 -13.5625,6.2167 -13.5625,13.875 0,0.15824 -0.005,0.31178 0,0.46875 -1.99111,-2.63491 -5.09119,-4.34375 -8.59375,-4.34375 -5.99065,0 -10.84375,4.9671 -10.84375,11.09375 0,4.59499 2.73184,8.56594 6.625,10.25 -8.00315,1.94559 -14.26018,9.29512 -15.78125,18.625 l -0.0469,39.375 c 49.81321,-0.0176 77.08909,0.61161 90.49678,0.61161 12.26308,0 9.26809,-8.88269 9.5501,-39.95541 -2.25422,-14.04358 -11.61483,-25.08567 -23.65625,-28 5.83975,-2.52608 9.90625,-8.45126 9.90625,-15.34375 0,-9.18998 -7.26402,-16.65625 -16.25,-16.65625 z m -14.3125,24.5625 c 1.75278,3.31176 4.55664,5.96154 7.96875,7.4375 -4.3872,1.06654 -8.40897,3.23764 -11.875,6.21875 -1.393,-0.65591 -2.83767,-1.19799 -4.34375,-1.5625 4.6698,-2.02 7.98896,-6.648 8.25,-12.09375 z m -24.84375,7 c 1.46207,2.24868 3.57173,4.02984 6.03125,5.09375 -3.79409,0.92235 -7.28982,2.83377 -10.25,5.46875 -0.77687,-0.30629 -1.55777,-0.58346 -2.375,-0.78125 3.75783,-1.62551 6.41226,-5.3898 6.59375,-9.78125 z"
             style="fill:url(#radialGradient3184);fill-opacity:1;stroke:none"
             sodipodi:nodetypes="cscsscsscccsccscccccccccccc" />
          <path
             inkscape:connector-curvature="0"
             id="path3032"
             d="m 391.375,478.53125 c -12.1024,0.15255 -18.48513,17.15904 -9.28125,25.09375 2.54596,2.75628 6.28769,3.75754 9.5625,5.34375 -6.36927,1.38415 -12.72127,3.48704 -17.5,8.09375 -6.59141,-3.84478 -14.53822,-3.51275 -20.875,0.65625 -2.49392,1.72534 -4.45791,3.96446 -7.46875,2.0625 -12.18477,-3.40487 -23.45915,10.01754 -21.7542,21.84375 -0.009,10.73958 -0.018,21.47917 -0.027,32.21875 30.48298,-0.27775 61.31026,0.85242 91.59375,0.34375 5.85916,-1.9374 4.03163,-9.88597 4.5625,-14.65625 -0.61855,-12.48137 2.30993,-26.43639 -5.75,-37.1875 -4.82942,-7.67977 -13.261,-11.77814 -21.9375,-13.40625 8.33801,-1.96644 15.68089,-9.85976 13.53125,-18.8125 -1.30526,-6.71398 -7.66967,-12.0739 -14.65625,-11.59375 z m -27.65625,10 c -10.0032,0.0232 -15.28584,14.49058 -7.1875,20.71875 3.86375,3.50235 9.40452,4.8777 13.59375,1.3125 7.20466,-4.10331 7.73874,-15.77254 0.375,-20.09375 -1.97647,-1.38484 -4.36418,-2.06642 -6.78125,-1.9375 z m -22.09375,10 c -8.77408,0.0363 -11.61675,13.45724 -3.625,17.15625 6.80745,5.24211 15.72873,-4.99756 12.52924,-11.81026 -1.99655,-3.05454 -5.04691,-5.69362 -8.90424,-5.34599 z"
             style="fill:url(#radialGradient3123);fill-opacity:1;stroke:none" />
        </g>
      </g>
      <rect
         y="538.22961"
         x="378.50415"
         height="38.234989"
         width="43.697132"
         id="rect3877"
         style="fill:#ff0000;fill-opacity:1;stroke:#ffffff;stroke-width:2;stroke-linecap:round;stroke-linejoin:round;stroke-miterlimit:4;stroke-opacity:1;stroke-dasharray:none" />
      <rect
         style="fill:#666666;fill-opacity:1;stroke:none"
         id="rect3879"
         width="43.697132"
         height="38.234989"
         x="378.50415"
         y="538.22961" />
      <rect
         y="541.23376"
         x="381.9256"
         height="32.226635"
         width="36.854282"
         id="rect3911"
         style="fill:#cccccc;fill-opacity:1;stroke:#ffffff;stroke-width:1" />
      <g
         style="fill:#000000"
         id="g3997">
        <path
           style="fill:#000000;fill-opacity:1;stroke:#ffffff;stroke-width:0.99999994000000003"
           d="m 384.35559,543.14301 31.99438,0 0,3.59184 -31.99438,0 z"
           id="rect3913" />
        <path
           style="fill:#000000;fill-opacity:1;stroke:#ffffff;stroke-width:0.99999994000000003"
           d="m 384.35559,549.3468 31.99438,0 0,3.59184 -31.99438,0 z"
           id="rect3915" />
        <path
           style="fill:#000000;fill-opacity:1;stroke:#ffffff;stroke-width:0.99999994000000003"
           d="m 384.35559,555.55078 31.99438,0 0,3.59184 -31.99438,0 z"
           id="rect3917" />
        <path
           style="fill:#000000;fill-opacity:1;stroke:#ffffff;stroke-width:0.99999994000000003"
           d="m 384.35559,561.75494 31.99438,0 0,3.59185 -31.99438,0 z"
           id="rect3919" />
        <path
           style="fill:#000000;fill-opacity:1;stroke:#ffffff;stroke-width:0.99999994000000003"
           d="m 384.35559,567.95935 31.99438,0 0,3.59184 -31.99438,0 z"
           id="rect3921" />
      </g>
      <g
         id="g3097">
        <path
           inkscape:connector-curvature="0"
           id="path3840"
           d="m 350.13319,519.2771 c -10.35307,0.5248 -18.59375,9.11026 -18.59375,19.59375 0,5.33236 2.13814,10.15455 5.59375,13.6875 -8.66431,1.5225 -15.0625,7.21218 -15.0625,14.09375 l 0,9.8125 58.15625,0 0,-9.8125 c 0,-6.87889 -6.40332,-12.56857 -15.0625,-14.09375 3.45467,-3.53281 5.5625,-8.35596 5.5625,-13.6875 0,-10.82167 -8.77208,-19.59375 -19.59375,-19.59375 -0.33818,0 -0.66603,-0.0169 -1,0 z"
           style="fill:#ffffff;fill-opacity:1;stroke:#ffffff;stroke-width:2;stroke-miterlimit:4;stroke-opacity:1;stroke-dasharray:none" />
        <path
           inkscape:connector-curvature="0"
           style="fill:url(#radialGradient3192);fill-opacity:1;stroke:none"
           d="m 350.13319,519.2771 c -10.35307,0.5248 -18.59375,9.11026 -18.59375,19.59375 0,5.33236 2.13814,10.15455 5.59375,13.6875 -8.66431,1.5225 -15.0625,7.21218 -15.0625,14.09375 l 0,9.8125 58.15625,0 0,-9.8125 c 0,-6.87889 -6.40332,-12.56857 -15.0625,-14.09375 3.45467,-3.53281 5.5625,-8.35596 5.5625,-13.6875 0,-10.82167 -8.77208,-19.59375 -19.59375,-19.59375 -0.33818,0 -0.66603,-0.0169 -1,0 z"
           id="path3826" />
        <path
           style="fill:url(#radialGradient3095);fill-opacity:1;stroke:none"
           d="m 349.28125,521.34375 c -12.98563,0.74741 -20.57566,17.77905 -12.3125,27.9375 4.88553,4.05905 3.3072,5.34446 -2.34375,5.90625 -6.79063,1.71134 -12.21428,8.3057 -10.5625,15.5625 -1.07349,7.31307 10.27988,2.19928 15,3.71875 13.05208,0 26.10417,0 39.15625,0 0.75904,-6.3115 0.34665,-14.06859 -6.125,-17.25 -3.22307,-2.10167 -7.09934,-2.68076 -10.8125,-3.375 9.01856,-6.75273 10.16692,-21.59334 1,-28.59375 -3.47423,-2.87695 -8.34034,-4.36408 -13,-3.90625 z"
           id="path3083"
           inkscape:connector-curvature="0" />
      </g>
      <path
         id="rect4057"
         d="M 378.5 538.21875 L 378.5 553.5625 L 422.1875 553.5625 L 422.1875 538.21875 L 378.5 538.21875 z "
         style="fill:url(#linearGradient4068);fill-opacity:1;stroke:none;stroke-width:13.57779597999999943;stroke-linecap:round;stroke-linejoin:round;stroke-miterlimit:4;stroke-opacity:1;stroke-dasharray:none" />
    </g>
  </g>
</svg>
